ffmpeg version N-102852-g758e2da289 Copyright (c) 2000-2021 the FFmpeg developers
  built with gcc 7 (Ubuntu 7.5.0-3ubuntu1~18.04)
  configuration: --prefix=/home/aleksandr/ffmpeg_debug_build --pkg-config-flags=--static --extra-cflags=-I/home/aleksandr/ffmpeg_debug_build/include --extra-ldflags=-L/home/aleksandr/ffmpeg_debug_build/lib --extra-libs='-lpthread -lm' --bindir=/home/aleksandr/bin_debug --enable-gpl --enable-libass --enable-libfdk-aac --enable-libfreetype --enable-libmp3lame --enable-libopus --enable-libtheora --enable-libvorbis --enable-libvpx --enable-libx264 --enable-libx265 --enable-nonfree
  libavutil      57.  0.100 / 57.  0.100
  libavcodec     59.  3.101 / 59.  3.101
  libavformat    59.  4.100 / 59.  4.100
  libavdevice    59.  0.100 / 59.  0.100
  libavfilter     8.  0.103 /  8.  0.103
  libswscale      6.  0.100 /  6.  0.100
  libswresample   4.  0.100 /  4.  0.100
  libpostproc    56.  0.100 / 56.  0.100
Input #0, matroska,webm, from '../.././Samples/8_AVC_8bits_3840x2160_25_000fps.mkv':
  Metadata:
    encoder         : Haali Matroska Writer b0
  Duration: 00:00:20.00, start: 0.000000, bitrate: 117459 kb/s
  Stream #0:0(eng): Video: h264 (Main), yuv420p(progressive), 3840x2160 [SAR 1:1 DAR 16:9], 25 fps, 25 tbr, 20k tbn (default)
Stream mapping:
  Stream #0:0 -> #0:0 (h264 (native) -> h264 (libx264))
Press [q] to stop, [?] for help
[libx264 @ 0x55f804034d00] using SAR=1/1
[libx264 @ 0x55f804034d00] using cpu capabilities: MMX2 SSE2Fast SSSE3 SSE4.2 AVX FMA3 BMI2 AVX2
[libx264 @ 0x55f804034d00] profile High, level 5.1
[libx264 @ 0x55f804034d00] 264 - core 152 r2854 e9a5903 - H.264/MPEG-4 AVC codec - Copyleft 2003-2017 - http://www.videolan.org/x264.html - options: cabac=1 ref=3 deblock=1:0:0 analyse=0x3:0x113 me=hex subme=7 psy=1 psy_rd=1.00:0.00 mixed_ref=1 me_range=16 chroma_me=1 trellis=1 8x8dct=1 cqm=0 deadzone=21,11 fast_pskip=1 chroma_qp_offset=-2 threads=6 lookahead_threads=1 sliced_threads=0 nr=0 decimate=1 interlaced=0 bluray_compat=0 constrained_intra=0 bframes=3 b_pyramid=2 b_adapt=1 b_bias=0 direct=1 weightb=1 open_gop=0 weightp=2 keyint=250 keyint_min=25 scenecut=40 intra_refresh=0 rc_lookahead=40 rc=crf mbtree=1 crf=23.0 qcomp=0.60 qpmin=0 qpmax=69 qpstep=4 ip_ratio=1.40 aq=1:1.00
Output #0, mov, to '/home/aleksandr/Debug-release_tests/Debug/Samples/8_AVC_8bits_3840x2160_25_000fps.mkv_tc/output_std3.mov':
  Metadata:
    encoder         : Lavf59.4.100
  Stream #0:0(eng): Video: h264 (avc1 / 0x31637661), yuv420p(progressive), 3840x2160 [SAR 1:1 DAR 16:9], q=2-31, 25 fps, 12800 tbn (default)
    Metadata:
      encoder         : Lavc59.3.101 libx264
    Side data:
      cpb: bitrate max/min/avg: 0/0/0 buffer size: 0 vbv_delay: N/A
frame=    1 fps=0.0 q=0.0 size=       0kB time=00:00:00.00 bitrate=N/A speed=   0x    frame=   17 fps=0.0 q=0.0 size=       0kB time=00:00:00.00 bitrate=N/A speed=   0x    frame=   30 fps= 25 q=0.0 size=       0kB time=00:00:00.00 bitrate=N/A speed=   0x    frame=   47 fps= 11 q=0.0 size=       0kB time=00:00:00.00 bitrate=N/A speed=   0x    frame=   52 fps= 11 q=28.0 size=    1536kB time=-00:00:00.03 bitrate=N/A speed=N/A    frame=   53 fps=9.0 q=28.0 size=    1792kB time=00:00:00.00 bitrate=188209641.0kbits/s speed=1.33e-05x    frame=   54 fps=8.4 q=28.0 size=    2048kB time=00:00:00.04 bitrate=418621.3kbits/s speed=0.00626x    frame=   57 fps=7.2 q=28.0 size=    3584kB time=00:00:00.16 bitrate=183413.2kbits/s speed=0.0202x    frame=   60 fps=7.1 q=28.0 size=    4608kB time=00:00:00.28 bitrate=134780.4kbits/s speed=0.0329x    frame=   61 fps=6.4 q=28.0 size=    5120kB time=00:00:00.32 bitrate=131041.0kbits/s speed=0.0334x    frame=   65 fps=5.6 q=28.0 size=    6656kB time=00:00:00.48 bitrate=113577.9kbits/s speed=0.0415x    frame=   67 fps=5.5 q=28.0 size=    7424kB time=00:00:00.56 bitrate=108587.9kbits/s speed=0.0459x    frame=   69 fps=5.2 q=28.0 size=    8448kB time=00:00:00.64 bitrate=108121.7kbits/s speed=0.0483x    frame=   71 fps=5.1 q=28.0 size=    8960kB time=00:00:00.72 bitrate=101934.2kbits/s speed=0.0521x    frame=   73 fps=4.8 q=28.0 size=    9984kB time=00:00:00.80 bitrate=102226.6kbits/s speed=0.0525x    frame=   75 fps=4.7 q=28.0 size=   10496kB time=00:00:00.88 bitrate=97699.9kbits/s speed=0.0553x    frame=   77 fps=4.5 q=28.0 size=   11776kB time=00:00:00.96 bitrate=100480.7kbits/s speed=0.0564x    frame=   80 fps=4.5 q=28.0 size=   13056kB time=00:00:01.08 bitrate=99025.3kbits/s speed=0.0612x    frame=   81 fps=4.2 q=28.0 size=   13312kB time=00:00:01.12 bitrate=97361.2kbits/s speed=0.0584x    frame=   85 fps=4.1 q=28.0 size=   15104kB time=00:00:01.28 bitrate=96659.9kbits/s speed=0.0622x    frame=   87 fps=4.1 q=28.0 size=   15616kB time=00:00:01.36 bitrate=94058.3kbits/s speed=0.0646x    frame=   89 fps=3.9 q=28.0 size=   16640kB time=00:00:01.44 bitrate=94658.2kbits/s speed=0.0632x    frame=   93 fps=3.8 q=28.0 size=   18432kB time=00:00:01.60 bitrate=94367.4kbits/s speed=0.0658x    frame=   95 fps=3.8 q=28.0 size=   18944kB time=00:00:01.68 bitrate=92370.4kbits/s speed=0.067x    frame=   97 fps=3.7 q=28.0 size=   19968kB time=00:00:01.76 bitrate=92938.0kbits/s speed=0.0669x    frame=   99 fps=3.7 q=28.0 size=   20736kB time=00:00:01.84 bitrate=92316.5kbits/s speed=0.0685x    frame=  101 fps=3.6 q=28.0 size=   21760kB time=00:00:01.92 bitrate=92839.0kbits/s speed=0.0678x    frame=  105 fps=3.5 q=28.0 size=   23296kB time=00:00:02.08 bitrate=91747.1kbits/s speed=0.0697x    frame=  107 fps=3.5 q=28.0 size=   24064kB time=00:00:02.16 bitrate=91261.8kbits/s speed=0.0708x    frame=  109 fps=3.4 q=28.0 size=   24832kB time=00:00:02.24 bitrate=90811.1kbits/s speed=0.0701x    frame=  111 fps=3.4 q=28.0 size=   25600kB time=00:00:02.32 bitrate=90391.6kbits/s speed=0.0712x    frame=  113 fps=3.4 q=28.0 size=   26624kB time=00:00:02.40 bitrate=90873.8kbits/s speed=0.0719x    frame=  115 fps=3.4 q=28.0 size=   27136kB time=00:00:02.48 bitrate=89633.6kbits/s speed=0.0728x    frame=  117 fps=3.3 q=28.0 size=   28416kB time=00:00:02.56 bitrate=90928.5kbits/s speed=0.0718x    frame=  119 fps=3.3 q=28.0 size=   28928kB time=00:00:02.64 bitrate=89761.9kbits/s speed=0.0729x    frame=  121 fps=3.3 q=28.0 size=   29952kB time=00:00:02.72 bitrate=90205.9kbits/s speed=0.0733x    frame=  122 fps=3.2 q=28.0 size=   30208kB time=00:00:02.76 bitrate=89658.4kbits/s speed=0.0732x    frame=  125 fps=3.2 q=28.0 size=   31488kB time=00:00:02.88 bitrate=89563.5kbits/s speed=0.0733x    frame=  128 fps=3.2 q=28.0 size=   32768kB time=00:00:03.00 bitrate=89476.3kbits/s speed=0.0752x    frame=  129 fps=3.1 q=28.0 size=   33280kB time=00:00:03.04 bitrate=89678.6kbits/s speed=0.0734x    frame=  132 fps=3.1 q=28.0 size=   34304kB time=00:00:03.16 bitrate=88927.8kbits/s speed=0.0753x    frame=  133 fps=3.1 q=28.0 size=   34816kB time=00:00:03.20 bitrate=89126.9kbits/s speed=0.0744x    frame=  136 fps=3.1 q=28.0 size=   36096kB time=00:00:03.32 bitrate=89063.8kbits/s speed=0.0761x    frame=  137 fps=3.0 q=28.0 size=   36608kB time=00:00:03.36 bitrate=89251.8kbits/s speed=0.0746x    frame=  139 fps=3.0 q=28.0 size=   37120kB time=00:00:03.44 bitrate=88395.5kbits/s speed=0.0755x    frame=  140 fps=3.0 q=28.0 size=   37888kB time=00:00:03.48 bitrate=89187.3kbits/s speed=0.0735x    frame=  145 fps=2.9 q=28.0 size=   40192kB time=00:00:03.68 bitrate=89469.1kbits/s speed=0.0739x    frame=  151 fps=2.9 q=28.0 size=   43520kB time=00:00:03.92 bitrate=90946.2kbits/s speed=0.0754x    frame=  154 fps=2.9 q=28.0 size=   45056kB time=00:00:04.04 bitrate=91359.4kbits/s speed=0.0755x    frame=  156 fps=2.9 q=28.0 size=   45824kB time=00:00:04.12 bitrate=91112.5kbits/s speed=0.0762x    frame=  158 fps=2.8 q=28.0 size=   47104kB time=00:00:04.20 bitrate=91873.6kbits/s speed=0.0755x    frame=  160 fps=2.8 q=28.0 size=   47872kB time=00:00:04.28 bitrate=91626.3kbits/s speed=0.0761x    frame=  162 fps=2.8 q=28.0 size=   49152kB time=00:00:04.36 bitrate=92350.1kbits/s speed=0.0757x    frame=  164 fps=2.8 q=28.0 size=   49920kB time=00:00:04.44 bitrate=92103.1kbits/s speed=0.0761x    frame=  166 fps=2.8 q=28.0 size=   51200kB time=00:00:04.52 bitrate=92792.8kbits/s speed=0.0759x    frame=  167 fps=2.8 q=28.0 size=   51712kB time=00:00:04.56 bitrate=92898.6kbits/s speed=0.0756x    frame=  170 fps=2.8 q=28.0 size=   53504kB time=00:00:04.68 bitrate=93653.4kbits/s speed=0.0758x    frame=  172 fps=2.8 q=28.0 size=   54272kB time=00:00:04.76 bitrate=93401.1kbits/s speed=0.0763x    frame=  174 fps=2.7 q=28.0 size=   55552kB time=00:00:04.84 bitrate=94023.7kbits/s speed=0.0756x    frame=  175 fps=2.7 q=28.0 size=   56064kB time=00:00:04.88 bitrate=94112.5kbits/s speed=0.0755x    frame=  178 fps=2.7 q=28.0 size=   57600kB time=00:00:05.00 bitrate=94370.4kbits/s speed=0.0758x    frame=  180 fps=2.7 q=28.0 size=   58624kB time=00:00:05.08 bitrate=94535.6kbits/s speed=0.0764x    frame=  181 fps=2.7 q=28.0 size=   59392kB time=00:00:05.12 bitrate=95025.8kbits/s speed=0.0759x    frame=  182 fps=2.7 q=28.0 size=   59904kB time=00:00:05.16 bitrate=95102.0kbits/s speed=0.0754x    frame=  183 fps=2.6 q=28.0 size=   60416kB time=00:00:05.20 bitrate=95177.1kbits/s speed=0.0753x    frame=  186 fps=2.7 q=28.0 size=   62208kB time=00:00:05.32 bitrate=95789.6kbits/s speed=0.076x    frame=  188 fps=2.7 q=28.0 size=   62976kB time=00:00:05.40 bitrate=95535.6kbits/s speed=0.0766x    frame=  189 fps=2.6 q=28.0 size=   64000kB time=00:00:05.44 bitrate=96375.1kbits/s speed=0.0758x    frame=  190 fps=2.6 q=28.0 size=   64512kB time=00:00:05.48 bitrate=96437.1kbits/s speed=0.0752x    frame=  192 fps=2.6 q=28.0 size=   65280kB time=00:00:05.56 bitrate=96181.0kbits/s speed=0.0756x    frame=  194 fps=2.6 q=28.0 size=   66816kB time=00:00:05.64 bitrate=97047.8kbits/s speed=0.0761x    frame=  195 fps=2.6 q=28.0 size=   67072kB time=00:00:05.68 bitrate=96733.6kbits/s speed=0.0761x    frame=  198 fps=2.6 q=28.0 size=   68864kB time=00:00:05.80 bitrate=97263.2kbits/s speed=0.0756x    frame=  199 fps=2.6 q=28.0 size=   69376kB time=00:00:05.84 bitrate=97315.2kbits/s speed=0.0756x    frame=  202 fps=2.6 q=28.0 size=   71168kB time=00:00:05.96 bitrate=97818.9kbits/s speed=0.076x    frame=  205 fps=2.6 q=28.0 size=   72704kB time=00:00:06.08 bitrate=97957.9kbits/s speed=0.0766x    frame=  206 fps=2.5 q=28.0 size=   73216kB time=00:00:06.12 bitrate=98003.0kbits/s speed=0.0755x    frame=  210 fps=2.6 q=28.0 size=   75520kB time=00:00:06.28 bitrate=98511.5kbits/s speed=0.0765x    frame=  212 fps=2.5 q=28.0 size=   76288kB time=00:00:06.36 bitrate=98261.6kbits/s speed=0.076x    frame=  214 fps=2.5 q=28.0 size=   77824kB time=00:00:06.44 bitrate=98994.8kbits/s speed=0.0761x    frame=  216 fps=2.5 q=28.0 size=   78592kB time=00:00:06.52 bitrate=98745.1kbits/s speed=0.0766x    frame=  218 fps=2.5 q=28.0 size=   80128kB time=00:00:06.60 bitrate=99454.7kbits/s speed=0.0757x    frame=  220 fps=2.5 q=28.0 size=   80896kB time=00:00:06.68 bitrate=99205.5kbits/s speed=0.0761x    frame=  222 fps=2.5 q=28.0 size=   82432kB time=00:00:06.76 bitrate=99892.8kbits/s speed=0.0758x    frame=  224 fps=2.5 q=28.0 size=   83200kB time=00:00:06.84 bitrate=99644.3kbits/s speed=0.0762x    frame=  226 fps=2.5 q=28.0 size=   84480kB time=00:00:06.92 bitrate=100007.6kbits/s speed=0.0759x    frame=  227 fps=2.5 q=28.0 size=   84992kB time=00:00:06.96 bitrate=100035.5kbits/s speed=0.0757x    frame=  230 fps=2.5 q=28.0 size=   86784kB time=00:00:07.08 bitrate=100413.4kbits/s speed=0.0762x    frame=  231 fps=2.5 q=28.0 size=   87296kB time=00:00:07.12 bitrate=100438.4kbits/s speed=0.076x    frame=  233 fps=2.5 q=28.0 size=   88576kB time=00:00:07.20 bitrate=100778.8kbits/s speed=0.0763x    frame=  234 fps=2.4 q=28.0 size=   89088kB time=00:00:07.24 bitrate=100801.3kbits/s speed=0.0758x    frame=  236 fps=2.5 q=28.0 size=   89856kB time=00:00:07.32 bitrate=100559.1kbits/s speed=0.0762x    frame=  238 fps=2.4 q=28.0 size=   91392kB time=00:00:07.40 bitrate=101172.4kbits/s speed=0.076x    frame=  242 fps=2.4 q=28.0 size=   93696kB time=00:00:07.56 bitrate=101527.8kbits/s speed=0.0759x    frame=  244 fps=2.4 q=28.0 size=   94720kB time=00:00:07.64 bitrate=101562.6kbits/s speed=0.0761x    frame=  246 fps=2.4 q=28.0 size=   96000kB time=00:00:07.72 bitrate=101868.4kbits/s speed=0.0762x    frame=  248 fps=2.4 q=28.0 size=   96768kB time=00:00:07.80 bitrate=101630.2kbits/s speed=0.0765x    frame=  250 fps=2.4 q=28.0 size=   98304kB time=00:00:07.88 bitrate=102195.3kbits/s speed=0.0758x    frame=  252 fps=2.4 q=28.0 size=   99328kB time=00:00:07.96 bitrate=102222.0kbits/s speed=0.0762x    frame=  254 fps=2.4 q=28.0 size=  100608kB time=00:00:08.04 bitrate=102509.1kbits/s speed=0.0766x    frame=  256 fps=2.4 q=28.0 size=  101632kB time=00:00:08.12 bitrate=102532.2kbits/s speed=0.0767x    frame=  258 fps=2.4 q=28.0 size=  102912kB time=00:00:08.20 bitrate=102810.7kbits/s speed=0.076x    frame=  260 fps=2.4 q=28.0 size=  103936kB time=00:00:08.28 bitrate=102830.4kbits/s speed=0.0764x    frame=  262 fps=2.4 q=28.0 size=  105472kB time=00:00:08.36 bitrate=103351.5kbits/s speed=0.0764x    frame=  264 fps=2.4 q=28.0 size=  106240kB time=00:00:08.44 bitrate=103117.3kbits/s speed=0.0764x    frame=  266 fps=2.4 q=28.0 size=  107776kB time=00:00:08.52 bitrate=103626.0kbits/s speed=0.0761x    frame=  267 fps=2.4 q=28.0 size=  108032kB time=00:00:08.56 bitrate=103386.7kbits/s speed=0.076x    frame=  269 fps=2.4 q=28.0 size=  109312kB time=00:00:08.64 bitrate=103643.1kbits/s speed=0.0758x    frame=  272 fps=2.4 q=28.0 size=  110848kB time=00:00:08.76 bitrate=103659.7kbits/s speed=0.0763x    frame=  274 fps=2.3 q=28.0 size=  112128kB time=00:00:08.84 bitrate=103907.8kbits/s speed=0.0757x    frame=  280 fps=2.4 q=28.0 size=  116480kB time=00:00:09.08 bitrate=105087.7kbits/s speed=0.0765x    frame=  281 fps=2.3 q=28.0 size=  116992kB time=00:00:09.12 bitrate=105086.7kbits/s speed=0.0759x    frame=  283 fps=2.3 q=28.0 size=  118016kB time=00:00:09.20 bitrate=105084.7kbits/s speed=0.0762x    frame=  286 fps=2.4 q=28.0 size=  119808kB time=00:00:09.32 bitrate=105306.8kbits/s speed=0.0766x    frame=  287 fps=2.3 q=28.0 size=  120320kB time=00:00:09.36 bitrate=105304.9kbits/s speed=0.0765x    frame=  289 fps=2.3 q=28.0 size=  121600kB time=00:00:09.44 bitrate=105523.2kbits/s speed=0.076x    frame=  291 fps=2.3 q=28.0 size=  122624kB time=00:00:09.52 bitrate=105517.6kbits/s speed=0.0762x    frame=  293 fps=2.3 q=28.0 size=  123904kB time=00:00:09.60 bitrate=105730.6kbits/s speed=0.0762x    frame=  295 fps=2.3 q=28.0 size=  124928kB time=00:00:09.68 bitrate=105723.4kbits/s speed=0.0764x    frame=  297 fps=2.3 q=28.0 size=  126208kB time=00:00:09.76 bitrate=105931.1kbits/s speed=0.076x    frame=  299 fps=2.3 q=28.0 size=  127232kB time=00:00:09.84 bitrate=105922.4kbits/s speed=0.0762x    frame=  301 fps=2.3 q=28.0 size=  128512kB time=00:00:09.92 bitrate=106125.2kbits/s speed=0.0763x    frame=  303 fps=2.3 q=28.0 size=  129536kB time=00:00:10.00 bitrate=106115.1kbits/s speed=0.0764x    frame=  305 fps=2.3 q=28.0 size=  130816kB time=00:00:10.08 bitrate=106313.2kbits/s speed=0.076x    frame=  307 fps=2.3 q=28.0 size=  131840kB time=00:00:10.16 bitrate=106301.7kbits/s speed=0.0762x    frame=  309 fps=2.3 q=28.0 size=  133120kB time=00:00:10.24 bitrate=106495.2kbits/s speed=0.0763x    frame=  310 fps=2.3 q=28.0 size=  133632kB time=00:00:10.28 bitrate=106488.8kbits/s speed=0.076x    frame=  313 fps=2.3 q=28.0 size=  135168kB time=00:00:10.40 bitrate=106470.0kbits/s speed=0.0762x    frame=  314 fps=2.3 q=28.0 size=  135680kB time=00:00:10.44 bitrate=106463.8kbits/s speed=0.0762x    frame=  317 fps=2.3 q=28.0 size=  137472kB time=00:00:10.56 bitrate=106644.2kbits/s speed=0.076x    frame=  319 fps=2.3 q=28.0 size=  138240kB time=00:00:10.64 bitrate=106433.7kbits/s speed=0.0762x    frame=  321 fps=2.3 q=28.0 size=  139520kB time=00:00:10.72 bitrate=106617.5kbits/s speed=0.0764x    frame=  322 fps=2.3 q=28.0 size=  140032kB time=00:00:10.76 bitrate=106611.0kbits/s speed=0.0764x    frame=  324 fps=2.3 q=28.0 size=  141056kB time=00:00:10.84 bitrate=106598.0kbits/s speed=0.0764x    frame=  325 fps=2.3 q=28.0 size=  141568kB time=00:00:10.88 bitrate=106591.6kbits/s speed=0.0762x    frame=  326 fps=2.3 q=28.0 size=  142080kB time=00:00:10.92 bitrate=106585.3kbits/s speed=0.0762x    frame=  329 fps=2.3 q=28.0 size=  143872kB time=00:00:11.04 bitrate=106756.5kbits/s speed=0.0763x    frame=  330 fps=2.3 q=28.0 size=  144128kB time=00:00:11.08 bitrate=106560.3kbits/s speed=0.0764x    frame=  332 fps=2.3 q=28.0 size=  145152kB time=00:00:11.16 bitrate=106548.1kbits/s speed=0.0766x    frame=  333 fps=2.3 q=28.0 size=  145920kB time=00:00:11.20 bitrate=106729.3kbits/s speed=0.0761x    frame=  335 fps=2.3 q=28.0 size=  146688kB time=00:00:11.28 bitrate=106530.1kbits/s speed=0.0763x    frame=  337 fps=2.3 q=28.0 size=  147968kB time=00:00:11.36 bitrate=106703.0kbits/s speed=0.0764x    frame=  338 fps=2.3 q=28.0 size=  148224kB time=00:00:11.40 bitrate=106512.5kbits/s speed=0.0764x    frame=  339 fps=2.3 q=28.0 size=  148736kB time=00:00:11.44 bitrate=106506.8kbits/s speed=0.0763x    frame=  341 fps=2.3 q=28.0 size=  150016kB time=00:00:11.52 bitrate=106677.3kbits/s speed=0.0764x    frame=  343 fps=2.3 q=28.0 size=  150784kB time=00:00:11.60 bitrate=106484.0kbits/s speed=0.0767x    frame=  345 fps=2.3 q=28.0 size=  152064kB time=00:00:11.68 bitrate=106652.4kbits/s speed=0.0763x    frame=  347 fps=2.3 q=28.0 size=  152832kB time=00:00:11.76 bitrate=106461.9kbits/s speed=0.0764x    frame=  349 fps=2.3 q=28.0 size=  154112kB time=00:00:11.84 bitrate=106628.2kbits/s speed=0.0766x    frame=  351 fps=2.3 q=28.0 size=  154880kB time=00:00:11.92 bitrate=106440.3kbits/s speed=0.0767x    frame=  353 fps=2.2 q=28.0 size=  155904kB time=00:00:12.00 bitrate=106429.8kbits/s speed=0.0762x    frame=  355 fps=2.2 q=28.0 size=  156928kB time=00:00:12.08 bitrate=106419.4kbits/s speed=0.0765x    frame=  357 fps=2.3 q=28.0 size=  157952kB time=00:00:12.16 bitrate=106409.1kbits/s speed=0.0767x    frame=  359 fps=2.2 q=28.0 size=  158720kB time=00:00:12.24 bitrate=106227.6kbits/s speed=0.0767x    frame=  361 fps=2.2 q=28.0 size=  160000kB time=00:00:12.32 bitrate=106389.0kbits/s speed=0.0764x    frame=  363 fps=2.2 q=28.0 size=  160768kB time=00:00:12.40 bitrate=106210.0kbits/s speed=0.0766x    frame=  365 fps=2.2 q=28.0 size=  162048kB time=00:00:12.48 bitrate=106369.3kbits/s speed=0.0767x    frame=  367 fps=2.2 q=28.0 size=  162816kB time=00:00:12.56 bitrate=106192.7kbits/s speed=0.0769x    frame=  369 fps=2.2 q=28.0 size=  163840kB time=00:00:12.64 bitrate=106184.3kbits/s speed=0.0765x    frame=  371 fps=2.2 q=28.0 size=  164608kB time=00:00:12.72 bitrate=106011.1kbits/s speed=0.0767x    frame=  373 fps=2.2 q=28.0 size=  165888kB time=00:00:12.80 bitrate=106167.7kbits/s speed=0.0767x    frame=  375 fps=2.2 q=28.0 size=  166656kB time=00:00:12.88 bitrate=105996.7kbits/s speed=0.0769x    frame=  377 fps=2.2 q=28.0 size=  167936kB time=00:00:12.96 bitrate=106151.5kbits/s speed=0.0767x    frame=  378 fps=2.2 q=28.0 size=  168192kB time=00:00:13.00 bitrate=105986.2kbits/s speed=0.0766x    frame=  381 fps=2.2 q=28.0 size=  169728kB time=00:00:13.12 bitrate=105975.9kbits/s speed=0.0769x    frame=  383 fps=2.2 q=28.0 size=  170496kB time=00:00:13.20 bitrate=105810.2kbits/s speed=0.0771x    frame=  385 fps=2.2 q=28.0 size=  171520kB time=00:00:13.28 bitrate=105804.5kbits/s speed=0.0767x    frame=  387 fps=2.2 q=28.0 size=  172288kB time=00:00:13.36 bitrate=105641.9kbits/s speed=0.0769x    frame=  389 fps=2.2 q=28.0 size=  173568kB time=00:00:13.44 bitrate=105793.2kbits/s speed=0.077x    frame=  391 fps=2.2 q=28.0 size=  174080kB time=00:00:13.52 bitrate=105477.5kbits/s speed=0.0772x    frame=  393 fps=2.2 q=28.0 size=  175360kB time=00:00:13.60 bitrate=105628.0kbits/s speed=0.0769x    frame=  395 fps=2.2 q=28.0 size=  175872kB time=00:00:13.68 bitrate=105316.9kbits/s speed=0.0771x    frame=  397 fps=2.2 q=28.0 size=  177152kB time=00:00:13.76 bitrate=105466.7kbits/s speed=0.0771x    frame=  399 fps=2.2 q=28.0 size=  177920kB time=00:00:13.84 bitrate=105311.6kbits/s speed=0.0772x    frame=  401 fps=2.2 q=28.0 size=  178944kB time=00:00:13.92 bitrate=105309.0kbits/s speed=0.077x    frame=  403 fps=2.2 q=28.0 size=  179712kB time=00:00:14.00 bitrate=105156.6kbits/s speed=0.0772x    frame=  405 fps=2.2 q=28.0 size=  180736kB time=00:00:14.08 bitrate=105154.9kbits/s speed=0.0772x    frame=  406 fps=2.2 q=28.0 size=  181248kB time=00:00:14.12 bitrate=105154.1kbits/s speed=0.0772x    frame=  409 fps=2.2 q=28.0 size=  182528kB time=00:00:14.24 bitrate=105004.3kbits/s speed=0.0772x    frame=  411 fps=2.2 q=28.0 size=  183296kB time=00:00:14.32 bitrate=104857.0kbits/s speed=0.0773x    frame=  413 fps=2.2 q=28.0 size=  184320kB time=00:00:14.40 bitrate=104857.1kbits/s speed=0.0773x    frame=  415 fps=2.2 q=28.0 size=  185088kB time=00:00:14.48 bitrate=104712.2kbits/s speed=0.0774x    frame=  417 fps=2.2 q=28.0 size=  186112kB time=00:00:14.56 bitrate=104713.0kbits/s speed=0.0773x    frame=  419 fps=2.2 q=28.0 size=  186880kB time=00:00:14.64 bitrate=104570.6kbits/s speed=0.0775x    frame=  421 fps=2.2 q=28.0 size=  187904kB time=00:00:14.72 bitrate=104572.1kbits/s speed=0.0774x    frame=  424 fps=2.2 q=28.0 size=  189184kB time=00:00:14.84 bitrate=104433.1kbits/s speed=0.0778x    frame=  425 fps=2.2 q=28.0 size=  189696kB time=00:00:14.88 bitrate=104434.3kbits/s speed=0.0776x    frame=  426 fps=2.2 q=28.0 size=  189952kB time=00:00:14.92 bitrate=104294.8kbits/s speed=0.0775x    frame=  429 fps=2.2 q=28.0 size=  191232kB time=00:00:15.04 bitrate=104159.9kbits/s speed=0.0775x    frame=  431 fps=2.2 q=28.0 size=  192000kB time=00:00:15.12 bitrate=104024.9kbits/s speed=0.0777x    frame=  433 fps=2.2 q=28.0 size=  193024kB time=00:00:15.20 bitrate=104029.3kbits/s speed=0.0776x    frame=  435 fps=2.2 q=28.0 size=  193792kB time=00:00:15.28 bitrate=103896.4kbits/s speed=0.0778x    frame=  437 fps=2.2 q=28.0 size=  194816kB time=00:00:15.36 bitrate=103901.4kbits/s speed=0.0777x    frame=  439 fps=2.2 q=28.0 size=  195328kB time=00:00:15.44 bitrate=103634.7kbits/s speed=0.0778x    frame=  441 fps=2.2 q=28.0 size=  196608kB time=00:00:15.52 bitrate=103776.1kbits/s speed=0.0778x    frame=  443 fps=2.2 q=28.0 size=  197120kB time=00:00:15.60 bitrate=103512.8kbits/s speed=0.0779x    frame=  445 fps=2.2 q=28.0 size=  198144kB time=00:00:15.68 bitrate=103519.6kbits/s speed=0.0778x    frame=  448 fps=2.2 q=28.0 size=  199424kB time=00:00:15.80 bitrate=103397.1kbits/s speed=0.0782x    frame=  449 fps=2.2 q=28.0 size=  199936kB time=00:00:15.84 bitrate=103400.8kbits/s speed=0.0778x    frame=  451 fps=2.2 q=28.0 size=  200448kB time=00:00:15.92 bitrate=103144.6kbits/s speed=0.078x    frame=  453 fps=2.2 q=28.0 size=  201728kB time=00:00:16.00 bitrate=103284.3kbits/s speed=0.078x    frame=  455 fps=2.2 q=28.0 size=  202240kB time=00:00:16.08 bitrate=103031.2kbits/s speed=0.0782x    frame=  457 fps=2.2 q=28.0 size=  203264kB time=00:00:16.16 bitrate=103040.3kbits/s speed=0.0779x    frame=  459 fps=2.2 q=28.0 size=  204032kB time=00:00:16.24 bitrate=102920.1kbits/s speed=0.0781x    frame=  461 fps=2.2 q=28.0 size=  205056kB time=00:00:16.32 bitrate=102929.6kbits/s speed=0.0781x    frame=  463 fps=2.2 q=28.0 size=  205568kB time=00:00:16.40 bitrate=102683.3kbits/s speed=0.0782x    frame=  465 fps=2.2 q=28.0 size=  206848kB time=00:00:16.48 bitrate=102821.1kbits/s speed=0.0781x    frame=  466 fps=2.2 q=28.0 size=  207104kB time=00:00:16.52 bitrate=102699.0kbits/s speed=0.0781x    frame=  469 fps=2.2 q=28.0 size=  208640kB time=00:00:16.64 bitrate=102714.6kbits/s speed=0.0783x    frame=  470 fps=2.2 q=28.0 size=  208896kB time=00:00:16.68 bitrate=102594.0kbits/s speed=0.0782x    frame=  472 fps=2.2 q=25.0 size=  209664kB time=00:00:16.76 bitrate=102479.7kbits/s speed=0.0781x    frame=  473 fps=2.2 q=28.0 size=  210176kB time=00:00:16.80 bitrate=102485.4kbits/s speed=0.0781x    frame=  476 fps=2.2 q=28.0 size=  211456kB time=00:00:16.92 bitrate=102378.2kbits/s speed=0.0784x    frame=  477 fps=2.2 q=28.0 size=  212480kB time=00:00:16.96 bitrate=102631.4kbits/s speed=0.0781x    frame=  483 fps=2.2 q=28.0 size=  215040kB time=00:00:17.20 bitrate=102418.6kbits/s speed=0.0782x    frame=  485 fps=2.2 q=28.0 size=  215808kB time=00:00:17.28 bitrate=102308.5kbits/s speed=0.0784x    frame=  488 fps=2.2 q=28.0 size=  217088kB time=00:00:17.40 bitrate=102205.6kbits/s speed=0.0787x    frame=  489 fps=2.2 q=28.0 size=  217344kB time=00:00:17.44 bitrate=102091.4kbits/s speed=0.0786x    frame=  491 fps=2.2 q=28.0 size=  218624kB time=00:00:17.52 bitrate=102223.8kbits/s speed=0.0783x    frame=  494 fps=2.2 q=28.0 size=  219904kB time=00:00:17.64 bitrate=102122.8kbits/s speed=0.0786x    frame=  496 fps=2.2 q=28.0 size=  220672kB time=00:00:17.72 bitrate=102016.8kbits/s speed=0.0787x    frame=  499 fps=2.2 q=28.0 size=  222208kB time=00:00:17.84 bitrate=102035.9kbits/s speed=0.0786x    frame=  500 fps=2.2 q=28.0 size=  222464kB time=00:00:17.88 bitrate=101924.9kbits/s speed=0.0786x    frame=  500 fps=2.0 q=-1.0 Lsize=  242961kB time=00:00:19.88 bitrate=100117.2kbits/s speed=0.0807x    
video:242951kB audio:0kB subtitle:0kB other streams:0kB global headers:0kB muxing overhead: 0.004028%
[libx264 @ 0x55f804034d00] frame I:4     Avg QP:26.32  size:1054116
[libx264 @ 0x55f804034d00] frame P:126   Avg QP:28.63  size:697791
[libx264 @ 0x55f804034d00] frame B:370   Avg QP:29.56  size:423360
[libx264 @ 0x55f804034d00] consecutive B-frames:  1.2%  0.4%  0.0% 98.4%
[libx264 @ 0x55f804034d00] mb I  I16..4:  9.3% 51.1% 39.7%
[libx264 @ 0x55f804034d00] mb P  I16..4:  2.9% 25.6% 14.6%  P16..4: 21.5% 26.3%  9.1%  0.0%  0.0%    skip: 0.0%
[libx264 @ 0x55f804034d00] mb B  I16..4:  0.9%  2.5%  2.1%  B16..8: 45.0% 15.6%  6.3%  direct:23.3%  skip: 4.4%  L0:39.5% L1:38.4% BI:22.1%
[libx264 @ 0x55f804034d00] 8x8 transform intra:55.3% inter:35.1%
[libx264 @ 0x55f804034d00] coded y,uvDC,uvAC intra: 96.3% 95.1% 71.7% inter: 69.4% 60.0% 22.2%
[libx264 @ 0x55f804034d00] i16 v,h,dc,p:  1% 42% 26% 31%
[libx264 @ 0x55f804034d00] i8 v,h,dc,ddl,ddr,vr,hd,vl,hu:  3% 42%  8%  4%  6%  3% 16%  3% 16%
[libx264 @ 0x55f804034d00] i4 v,h,dc,ddl,ddr,vr,hd,vl,hu:  4% 35% 11%  6%  7%  4% 15%  4% 15%
[libx264 @ 0x55f804034d00] i8c dc,h,v,p: 42% 43%  5%  9%
[libx264 @ 0x55f804034d00] Weighted P-Frames: Y:3.2% UV:1.6%
[libx264 @ 0x55f804034d00] ref P L0: 46.0% 17.9% 23.7% 12.1%  0.3%
[libx264 @ 0x55f804034d00] ref B L0: 93.9%  4.5%  1.7%
[libx264 @ 0x55f804034d00] ref B L1: 99.0%  1.0%
[libx264 @ 0x55f804034d00] kb/s:99512.59
	Command being timed: "/home/aleksandr/bin_debug/ffmpeg -i ../.././Samples/8_AVC_8bits_3840x2160_25_000fps.mkv -c:v libx264 -f mov /home/aleksandr/Debug-release_tests/Debug/Samples/8_AVC_8bits_3840x2160_25_000fps.mkv_tc/output_std3.mov"
	User time (seconds): 971.17
	System time (seconds): 1.19
	Percent of CPU this job got: 394%
	Elapsed (wall clock) time (h:mm:ss or m:ss): 4:06.71
	Average shared text size (kbytes): 0
	Average unshared data size (kbytes): 0
	Average stack size (kbytes): 0
	Average total size (kbytes): 0
	Maximum resident set size (kbytes): 2117472
	Average resident set size (kbytes): 0
	Major (requiring I/O) page faults: 3
	Minor (reclaiming a frame) page faults: 166636
	Voluntary context switches: 12687
	Involuntary context switches: 91034
	Swaps: 0
	File system inputs: 1952
	File system outputs: 486120
	Socket messages sent: 0
	Socket messages received: 0
	Signals delivered: 0
	Page size (bytes): 4096
	Exit status: 0
